<svg version="1.1" xmlns="http://www.w3.org/2000/svg" xmlns:xlink="http://www.w3.org/1999/xlink" viewBox="0 0 172 172"><g fill="none" fill-rule="nonzero" stroke="none" stroke-width="1" stroke-linecap="butt" stroke-linejoin="miter" stroke-miterlimit="10" stroke-dasharray="" stroke-dashoffset="0" font-family="none" font-weight="none" font-size="none" text-anchor="none" style="mix-blend-mode: normal"><path d="M0,172v-172h172v172z" fill="none"></path><path d="M86,148.78c-34.67244,0 -62.78,-28.10756 -62.78,-62.78v0c0,-34.67244 28.10756,-62.78 62.78,-62.78v0c34.67244,0 62.78,28.10756 62.78,62.78v0c0,34.67244 -28.10756,62.78 -62.78,62.78z" fill="#2ecc71"></path><g fill="#222326"><path d="M86,17.2c-37.93451,0 -68.8,30.86549 -68.8,68.8c0,37.9345 30.86549,68.8 68.8,68.8c37.9345,0 68.8,-30.8655 68.8,-68.8c0,-37.93451 -30.8655,-68.8 -68.8,-68.8zM86,27.78462c32.21416,0 58.21538,26.00123 58.21538,58.21538c0,32.21416 -26.00123,58.21538 -58.21538,58.21538c-32.21415,0 -58.21538,-26.00123 -58.21538,-58.21538c0,-32.21415 26.00123,-58.21538 58.21538,-58.21538zM86,70.12308c-8.76935,0 -15.87692,7.10757 -15.87692,15.87692c0,8.76935 7.10757,15.87692 15.87692,15.87692c8.76935,0 15.87692,-7.10757 15.87692,-15.87692c0,-0.81502 -0.05929,-1.61482 -0.17572,-2.39808c-1.15372,-7.63151 -7.74686,-13.47885 -15.7012,-13.47885z"></path></g></g></svg>