<?xml version="1.0" encoding="utf-8"?>
<!-- Generator: Adobe Illustrator 24.0.2, SVG Export Plug-In . SVG Version: 6.00 Build 0)  -->
<svg version="1.1" id="Capa_1" xmlns="http://www.w3.org/2000/svg" xmlns:xlink="http://www.w3.org/1999/xlink" x="0px" y="0px"
	 viewBox="0 0 113.39 56.69" style="enable-background:new 0 0 113.39 56.69;" xml:space="preserve">
<style type="text/css">
	.st0{fill:#BDBCBC;}
	.st1{fill:#FFFFFF;}
</style>
<g>
	<g>
		<g>
			<g>
				<path class="st0" d="M92.44,14.13H20.95c-0.26,0-0.52,0-0.78,0c-0.22,0-0.43,0.01-0.65,0.01c-0.47,0.01-0.95,0.04-1.42,0.13
					c-0.48,0.08-0.92,0.23-1.35,0.45c-0.43,0.22-0.81,0.5-1.15,0.84c-0.34,0.34-0.62,0.73-0.84,1.15c-0.22,0.43-0.36,0.88-0.44,1.35
					c-0.09,0.47-0.12,0.95-0.13,1.42c-0.01,0.22-0.01,0.44-0.01,0.65c0,0.26,0,0.52,0,0.78v14.87c0,0.26,0,0.52,0,0.78
					c0,0.22,0,0.43,0.01,0.66c0.01,0.48,0.04,0.95,0.13,1.42c0.08,0.48,0.22,0.92,0.44,1.35c0.22,0.42,0.5,0.81,0.84,1.15
					c0.34,0.34,0.72,0.62,1.15,0.84c0.43,0.22,0.88,0.36,1.35,0.45c0.47,0.08,0.95,0.11,1.42,0.13c0.22,0,0.44,0.01,0.65,0.01
					c0.26,0,0.52,0,0.78,0h71.49c0.26,0,0.51,0,0.77,0c0.22,0,0.44,0,0.66-0.01c0.48-0.01,0.95-0.04,1.42-0.13
					c0.48-0.09,0.92-0.23,1.36-0.45c0.42-0.22,0.81-0.5,1.15-0.84c0.34-0.33,0.62-0.72,0.84-1.15c0.22-0.43,0.36-0.88,0.44-1.35
					c0.09-0.47,0.12-0.95,0.13-1.42c0-0.22,0-0.43,0-0.66c0.01-0.26,0.01-0.51,0.01-0.78V20.91c0-0.26,0-0.52-0.01-0.78
					c0-0.22,0-0.44,0-0.65c-0.02-0.48-0.04-0.95-0.13-1.42c-0.08-0.48-0.22-0.92-0.44-1.35c-0.22-0.43-0.5-0.82-0.84-1.15
					c-0.34-0.34-0.72-0.62-1.15-0.84c-0.44-0.22-0.88-0.36-1.36-0.45c-0.47-0.08-0.95-0.11-1.42-0.13c-0.22,0-0.44-0.01-0.66-0.01
					C92.96,14.13,92.7,14.13,92.44,14.13L92.44,14.13z"/>
				<path d="M20.17,41.94c-0.22,0-0.43,0-0.64-0.01c-0.4-0.01-0.87-0.03-1.33-0.12c-0.43-0.08-0.82-0.21-1.18-0.39
					c-0.37-0.19-0.7-0.43-0.99-0.72c-0.29-0.29-0.54-0.62-0.73-0.99c-0.18-0.36-0.31-0.74-0.39-1.18c-0.09-0.48-0.11-0.96-0.12-1.33
					c0-0.15-0.01-0.65-0.01-0.65V20.13c0,0,0.01-0.49,0.01-0.64c0.01-0.37,0.03-0.86,0.12-1.33c0.08-0.44,0.2-0.82,0.39-1.18
					c0.19-0.37,0.43-0.71,0.72-0.99c0.29-0.29,0.63-0.54,1-0.73c0.36-0.19,0.75-0.31,1.17-0.39c0.48-0.09,0.96-0.11,1.33-0.12
					l0.64-0.01h73.03l0.65,0.01c0.36,0.01,0.85,0.03,1.32,0.12c0.43,0.07,0.82,0.2,1.19,0.39c0.36,0.19,0.7,0.43,0.99,0.72
					c0.29,0.29,0.53,0.62,0.73,1c0.18,0.36,0.31,0.75,0.38,1.17c0.08,0.45,0.11,0.91,0.12,1.34c0,0.2,0,0.42,0,0.63
					c0.01,0.27,0.01,0.52,0.01,0.78v14.87c0,0.26,0,0.51-0.01,0.76c0,0.23,0,0.44,0,0.66c-0.01,0.42-0.04,0.88-0.12,1.32
					c-0.07,0.44-0.2,0.82-0.38,1.19c-0.19,0.37-0.44,0.7-0.72,0.98c-0.29,0.3-0.63,0.54-0.99,0.73c-0.37,0.19-0.74,0.31-1.19,0.39
					c-0.46,0.08-0.93,0.1-1.33,0.12c-0.21,0-0.43,0.01-0.64,0.01l-0.77,0L20.17,41.94z"/>
			</g>
		</g>
		<g>
			<g>
				<g>
					<path class="st1" d="M31.78,28.56c-0.02-1.95,1.6-2.91,1.67-2.95c-0.92-1.34-2.34-1.52-2.84-1.53
						c-1.19-0.13-2.35,0.71-2.96,0.71c-0.62,0-1.56-0.7-2.56-0.68c-1.3,0.02-2.51,0.77-3.18,1.94c-1.37,2.38-0.35,5.88,0.97,7.8
						c0.66,0.94,1.43,1.99,2.44,1.96c0.99-0.04,1.35-0.63,2.54-0.63c1.18,0,1.52,0.63,2.55,0.6c1.06-0.02,1.72-0.95,2.36-1.9
						c0.76-1.08,1.07-2.14,1.08-2.2C33.83,31.68,31.8,30.9,31.78,28.56z"/>
					<path class="st1" d="M29.83,22.81c0.53-0.66,0.89-1.57,0.79-2.48c-0.77,0.03-1.73,0.53-2.28,1.18
						c-0.49,0.57-0.93,1.51-0.81,2.39C28.4,23.96,29.28,23.46,29.83,22.81z"/>
				</g>
			</g>
			<g>
				<path class="st1" d="M44.24,33.42h-3.36l-0.81,2.39h-1.42l3.19-8.82h1.48l3.19,8.82h-1.45L44.24,33.42z M41.22,32.32h2.67
					l-1.31-3.87h-0.04L41.22,32.32z"/>
				<path class="st1" d="M53.37,32.59c0,2-1.07,3.28-2.69,3.28c-0.92,0-1.64-0.41-2.02-1.13h-0.03v3.19h-1.32v-8.56h1.28v1.07h0.02
					c0.37-0.69,1.15-1.14,2.05-1.14C52.3,29.3,53.37,30.59,53.37,32.59z M52.01,32.59c0-1.3-0.67-2.16-1.7-2.16
					c-1.01,0-1.69,0.87-1.69,2.16c0,1.3,0.68,2.16,1.69,2.16C51.34,34.75,52.01,33.9,52.01,32.59z"/>
				<path class="st1" d="M60.45,32.59c0,2-1.07,3.28-2.68,3.28c-0.92,0-1.64-0.41-2.02-1.13h-0.03v3.19h-1.32v-8.56h1.28v1.07h0.02
					c0.37-0.69,1.15-1.14,2.05-1.14C59.38,29.3,60.45,30.59,60.45,32.59z M59.1,32.59c0-1.3-0.67-2.16-1.7-2.16
					c-1.01,0-1.69,0.87-1.69,2.16c0,1.3,0.68,2.16,1.69,2.16C58.42,34.75,59.1,33.9,59.1,32.59z"/>
				<path class="st1" d="M65.13,33.35c0.1,0.88,0.95,1.45,2.11,1.45c1.11,0,1.91-0.57,1.91-1.36c0-0.68-0.48-1.1-1.63-1.38
					l-1.14-0.28c-1.62-0.39-2.37-1.15-2.37-2.38c0-1.52,1.33-2.57,3.21-2.57c1.86,0,3.14,1.05,3.19,2.57h-1.33
					c-0.08-0.88-0.81-1.41-1.87-1.41c-1.06,0-1.79,0.54-1.79,1.32c0,0.62,0.47,0.99,1.6,1.27l0.97,0.24
					c1.81,0.43,2.56,1.16,2.56,2.45c0,1.65-1.32,2.69-3.41,2.69c-1.96,0-3.28-1.01-3.36-2.61H65.13z"/>
				<path class="st1" d="M73.4,27.85v1.52h1.22v1.05H73.4v3.55c0,0.55,0.24,0.81,0.78,0.81c0.13,0,0.35-0.02,0.43-0.03v1.04
					c-0.15,0.04-0.44,0.06-0.73,0.06c-1.3,0-1.81-0.49-1.81-1.74v-3.69h-0.94v-1.05h0.94v-1.52H73.4z"/>
				<path class="st1" d="M75.34,32.59c0-2.02,1.19-3.3,3.05-3.3c1.87,0,3.05,1.27,3.05,3.3c0,2.03-1.18,3.3-3.05,3.3
					C76.52,35.89,75.34,34.62,75.34,32.59z M80.09,32.59c0-1.39-0.64-2.21-1.71-2.21c-1.07,0-1.71,0.83-1.71,2.21
					c0,1.39,0.64,2.21,1.71,2.21C79.46,34.8,80.09,33.98,80.09,32.59z"/>
				<path class="st1" d="M82.53,29.37h1.26v1.1h0.03c0.2-0.73,0.79-1.16,1.55-1.16c0.19,0,0.35,0.02,0.45,0.05v1.24
					c-0.1-0.04-0.34-0.08-0.59-0.08c-0.85,0-1.38,0.58-1.38,1.48v3.82h-1.32V29.37z"/>
				<path class="st1" d="M91.91,33.92c-0.18,1.17-1.32,1.97-2.77,1.97c-1.87,0-3.03-1.25-3.03-3.27c0-2.02,1.17-3.33,2.98-3.33
					c1.78,0,2.9,1.22,2.9,3.17v0.45h-4.54V33c0,1.1,0.69,1.82,1.73,1.82c0.73,0,1.31-0.35,1.49-0.9H91.91z M87.44,32h3.22
					c-0.03-0.98-0.66-1.63-1.58-1.63C88.17,30.36,87.51,31.02,87.44,32z"/>
			</g>
		</g>
	</g>
	<g>
		<g>
			<path class="st1" d="M39.35,22.46c0-1.38,0.73-2.22,1.91-2.22c0.93,0,1.66,0.61,1.76,1.47h-0.66c-0.12-0.52-0.55-0.86-1.11-0.86
				c-0.76,0-1.24,0.62-1.24,1.61c0,0.99,0.48,1.61,1.24,1.61c0.56,0,0.99-0.3,1.1-0.78h0.66c-0.12,0.84-0.81,1.4-1.76,1.4
				C40.08,24.68,39.35,23.83,39.35,22.46z"/>
			<path class="st1" d="M43.74,22.98c0-1.03,0.58-1.66,1.51-1.66c0.93,0,1.51,0.63,1.51,1.66c0,1.04-0.57,1.66-1.51,1.66
				C44.32,24.64,43.74,24.01,43.74,22.98z M46.11,22.98c0-0.69-0.31-1.1-0.86-1.1c-0.55,0-0.86,0.41-0.86,1.1
				c0,0.7,0.31,1.1,0.86,1.1C45.8,24.08,46.11,23.67,46.11,22.98z"/>
			<path class="st1" d="M47.61,21.38h0.61v0.51h0.05c0.16-0.36,0.47-0.57,0.95-0.57c0.71,0,1.11,0.43,1.11,1.19v2.07H49.7v-1.91
				c0-0.51-0.22-0.77-0.69-0.77c-0.47,0-0.76,0.31-0.76,0.81v1.87h-0.63V21.38z"/>
			<path class="st1" d="M52.47,21.32c0.72,0,1.19,0.33,1.25,0.9h-0.61c-0.06-0.23-0.29-0.38-0.65-0.38c-0.35,0-0.62,0.17-0.62,0.42
				c0,0.19,0.16,0.31,0.51,0.39l0.53,0.12c0.61,0.14,0.89,0.4,0.89,0.87c0,0.6-0.56,1-1.33,1c-0.76,0-1.26-0.34-1.31-0.91h0.63
				c0.08,0.25,0.31,0.4,0.7,0.4c0.39,0,0.67-0.18,0.67-0.43c0-0.19-0.15-0.31-0.47-0.39l-0.56-0.13c-0.61-0.14-0.89-0.42-0.89-0.89
				C51.23,21.72,51.75,21.32,52.47,21.32z"/>
			<path class="st1" d="M54.58,20.84l0.74-1.01h0.74l-0.83,1.01H54.58z M54.65,21.38h0.63v3.2h-0.63V21.38z"/>
			<path class="st1" d="M56.26,24.9h0.65c0.05,0.23,0.32,0.38,0.75,0.38c0.53,0,0.84-0.25,0.84-0.67v-0.61h-0.05
				c-0.19,0.35-0.55,0.54-0.99,0.54c-0.82,0-1.32-0.63-1.32-1.59c0-0.98,0.51-1.62,1.33-1.62c0.44,0,0.83,0.22,1,0.56h0.05v-0.51
				h0.61v3.23c0,0.73-0.57,1.2-1.48,1.2C56.85,25.8,56.33,25.44,56.26,24.9z M58.5,22.94c0-0.64-0.33-1.05-0.87-1.05
				c-0.54,0-0.85,0.41-0.85,1.05c0,0.64,0.31,1.05,0.85,1.05C58.18,23.98,58.5,23.58,58.5,22.94z"/>
			<path class="st1" d="M62.83,24.58h-0.61v-0.51h-0.05c-0.16,0.36-0.48,0.57-0.97,0.57c-0.71,0-1.1-0.43-1.1-1.18v-2.08h0.63v1.91
				c0,0.52,0.21,0.76,0.67,0.76c0.51,0,0.79-0.3,0.79-0.81v-1.87h0.63V24.58z"/>
			<path class="st1" d="M66.54,23.71c-0.14,0.57-0.66,0.93-1.39,0.93c-0.92,0-1.48-0.63-1.48-1.65c0-1.02,0.57-1.67,1.48-1.67
				c0.89,0,1.43,0.61,1.43,1.61v0.22h-2.26v0.04c0.02,0.56,0.35,0.92,0.85,0.92c0.38,0,0.64-0.14,0.76-0.39H66.54z M64.32,22.68
				h1.62c-0.01-0.5-0.32-0.83-0.79-0.83C64.68,21.85,64.35,22.18,64.32,22.68z"/>
			<path class="st1" d="M67.46,20.13h0.63v4.45h-0.63V20.13z"/>
			<path class="st1" d="M68.97,22.98c0-1.03,0.58-1.66,1.51-1.66c0.93,0,1.51,0.63,1.51,1.66c0,1.04-0.57,1.66-1.51,1.66
				C69.54,24.64,68.97,24.01,68.97,22.98z M71.33,22.98c0-0.69-0.31-1.1-0.86-1.1c-0.55,0-0.86,0.41-0.86,1.1
				c0,0.7,0.31,1.1,0.86,1.1C71.02,24.08,71.33,23.67,71.33,22.98z"/>
			<path class="st1" d="M77.27,23.71c-0.14,0.57-0.66,0.93-1.39,0.93c-0.92,0-1.48-0.63-1.48-1.65c0-1.02,0.57-1.67,1.48-1.67
				c0.89,0,1.43,0.61,1.43,1.61v0.22h-2.26v0.04c0.02,0.56,0.35,0.92,0.85,0.92c0.38,0,0.64-0.14,0.76-0.39H77.27z M75.05,22.68
				h1.62c-0.01-0.5-0.32-0.83-0.79-0.83C75.41,21.85,75.09,22.18,75.05,22.68z"/>
			<path class="st1" d="M78.16,21.38h0.61v0.51h0.05c0.16-0.36,0.47-0.57,0.96-0.57c0.71,0,1.11,0.43,1.11,1.19v2.07h-0.63v-1.91
				c0-0.51-0.22-0.77-0.69-0.77c-0.47,0-0.76,0.31-0.76,0.81v1.87h-0.63V21.38z"/>
			<path class="st1" d="M86.3,23.71c-0.14,0.57-0.66,0.93-1.39,0.93c-0.92,0-1.48-0.63-1.48-1.65c0-1.02,0.57-1.67,1.48-1.67
				c0.89,0,1.43,0.61,1.43,1.61v0.22h-2.26v0.04c0.02,0.56,0.35,0.92,0.85,0.92c0.38,0,0.64-0.14,0.76-0.39H86.3z M84.07,22.68h1.62
				c-0.01-0.5-0.32-0.83-0.79-0.83C84.44,21.85,84.11,22.18,84.07,22.68z"/>
			<path class="st1" d="M87.21,20.13h0.63v4.45h-0.63V20.13z"/>
		</g>
	</g>
</g>
</svg>
